<svg xmlns="http://www.w3.org/2000/svg" viewBox="0 0 140.23 105.67"><defs><style>.cls-1{fill:#00ed04;}.cls-2{fill:#004501;}</style></defs><g id="Layer_2" data-name="Layer 2"><g id="Layer_1-2" data-name="Layer 1"><path class="cls-1" d="M93.23,69.29,91.4,64.64c2.87-1.13,4.5-4.24,5.07-6.77a17.84,17.84,0,0,0,.4-3.43C91,52.65,86.21,47.07,83.82,44.25c-8.74-10.31-14.07-21.9-15.43-33.53a12.16,12.16,0,0,1,.72-6.67A7.11,7.11,0,0,1,73.63.23a6.1,6.1,0,0,1,5.14.86,29,29,0,0,1,7,7.63c9.12,13.12,14.6,27.35,15.86,41.18a5.62,5.62,0,0,0,.79-.18c4-1.14,4.8-5.18,4.8-8.37,0-6.91-2-14-6.13-21.45a13.57,13.57,0,0,1-1.63-.62A20.57,20.57,0,0,1,89.59,8.16,5.23,5.23,0,0,1,89.22,6a3.65,3.65,0,0,1,2-3.09c.79-.37,2.41-.75,4.37.87,3.57,3,5.85,6.83,8.07,10.57l.57,1,.06.09a4.45,4.45,0,0,0,2.07-.49c1-.52,1.84-3,1.46-4.43l4.82-1.32c.93,3.36-.58,8.43-4,10.19a9.16,9.16,0,0,1-1.82.71,47.28,47.28,0,0,1,5.41,21.31c0,6.83-3.07,11.63-8.41,13.18a13.11,13.11,0,0,1-2,.4,23.15,23.15,0,0,1-.51,4C100.24,63.87,97.21,67.73,93.23,69.29ZM75.3,5a1.63,1.63,0,0,0-.36,0,2.12,2.12,0,0,0-1.3,1.12,7.74,7.74,0,0,0-.29,4C74.6,20.79,79.53,31.46,87.63,41c2.58,3.05,5.67,6.3,8.92,7.92C95.13,36.41,90,23.53,81.71,11.57A24,24,0,0,0,75.93,5.2,1.1,1.1,0,0,0,75.3,5ZM94.2,6.18Z"/><path class="cls-2" d="M10.63,52.23c6.38,0,11.24-.36,13.73-6.62h.91v9.66H0V53.45C.79,53,1.76,52.29,1.76,50V21.86c0-2.31-1-3-1.76-3.46V16.58H25.27v9.65h-.91C21.87,20,17,19.61,10.63,19.61h-.36V32.06H21.5v8.87h-.6c-2.43-3.28-4.26-5.65-10.39-5.83h-.24V52.23Z"/><path class="cls-2" d="M28.06,39.35c0-7.65,5.05-15.06,15.86-15.06a24.76,24.76,0,0,1,11.9,3.64l-5.34,8.75-.61-.12c-2-4.19-5.34-9-8.75-9-3.09,0-4.49,3.16-4.49,7,0,9.71,7.29,19.68,18.71,16.94l.36.85C53.15,54.72,49.08,56,44.83,56,35.23,56,28.06,48.89,28.06,39.35Z"/><path class="cls-2" d="M57.4,40.2c0-8,5.47-15.91,16.53-15.91,9.35,0,16.46,6.32,16.46,15.85-.06,7.9-5.53,15.74-16.46,15.74C64.57,55.88,57.4,49.68,57.4,40.2Zm8.32-5.28c0,7.35,5,17.68,11,17.62,3.77,0,5.34-3.16,5.34-7.23,0-7.41-5-17.8-11-17.8C66.88,27.51,65.72,31.46,65.72,34.92Z"/><path class="cls-2" d="M10.73,84.89V99.77c0,2.31,1,3,1.7,3.47v1.82H.46v-1.82c.79-.43,1.76-1.16,1.76-3.47V71.65c0-2.31-1-3-1.76-3.46V66.37h27.7V76h-.91c-2.49-6.19-7.9-6.62-14.33-6.62H10.73V81.85H24.4v8.87h-.61c-2.43-3.28-6.08-5.77-12.21-5.83Z"/><path class="cls-2" d="M32.66,80.88c0-2.31-1-3-1.77-3.46v-.91l9.6-2.43.67.61V99.77c0,2.31,1,3,1.76,3.47v1.82h-12v-1.82c.79-.43,1.77-1.16,1.77-3.47Zm4.19-18.34a4.25,4.25,0,1,1,0,8.5,4.25,4.25,0,1,1,0-8.5Z"/><path class="cls-2" d="M48.33,80.88c0-2.31-1-3-1.76-3.46v-.91l9.59-2.43.67.61v3c3-1.64,7.17-3.64,10.69-3.64,4.07,0,7.6,2,7.54,8.69V99c0,2.3,1.15,4.67,3.94,3.64l.43.79a10.45,10.45,0,0,1-6.26,2.25c-3.34-.06-6.62-1.76-6.62-7.23V84.16c0-3.4-1-5.34-3.76-5.34-1.89,0-4.2,1.27-6,2.49V99.77c0,2.31,1,3,1.76,3.47v1.82h-12v-1.82c.79-.43,1.76-1.16,1.76-3.47Z"/><path class="cls-2" d="M102.94,102.14a17.8,17.8,0,0,1-10,3c-17.25,0-19.8-31.65,2-31.65A17.63,17.63,0,0,1,103,75.66V69.34c0-2.31-1-3-1.7-3.46V65l9.41-2.49.79.67V99.77c0,2.31,1,3,1.7,3.47v1.82H102.94Zm0-15.91c-4-12.82-15.43-12.64-15.43-1.88,0,10.14,9.53,20.1,15.43,14.21Z"/><path class="cls-2" d="M123.89,79.67c0,6.07,16.34,8.68,16.34,17.92,0,6.44-6.44,8.08-11.29,8.08A51.22,51.22,0,0,1,116.66,104V92.85h.92c1.88,3.71,8,9.78,12.27,9.78,1.82,0,2.91-.79,2.91-2.55,0-5.29-16.4-8.2-16.4-17.8-.06-5.65,5.59-8.2,11.54-8.2,4.25,0,7.11,1,11,3.64v7.6l-.85.06c-3-3.83-7.6-8.26-11.24-8.26A2.69,2.69,0,0,0,123.89,79.67Z"/></g></g></svg>