<svg width="51" height="36" viewBox="0 0 51 36" fill="none" xmlns="http://www.w3.org/2000/svg">
<path d="M44.2423 23.6067L43.6297 22.0064C44.6166 21.6319 45.1612 20.5764 45.3654 19.6912C45.4334 19.3507 45.5015 18.9422 45.5015 18.5336C43.4936 17.9207 41.86 16.0141 41.0432 15.0607C38.0824 11.5538 36.2446 7.60432 35.8022 3.6548C35.7341 3.00789 35.7001 2.1567 36.0404 1.37361C36.3467 0.726703 36.9253 0.250037 37.5719 0.079799C38.1845 -0.0904389 38.7971 0.0117038 39.3076 0.386227C40.2945 1.06718 41.0432 2.05456 41.6898 2.97384C44.7868 7.43408 46.6586 12.3029 47.101 17.0014C47.2031 17.0014 47.2712 16.9674 47.3733 16.9334C48.7346 16.5588 49.0068 15.1629 49.0068 14.0734C49.0068 11.7241 48.3262 9.34074 46.9309 6.75313C46.7607 6.68503 46.5565 6.61694 46.3863 6.54884C44.9229 5.86789 43.5616 4.36979 43.0171 2.76956C42.9491 2.59932 42.881 2.32694 42.881 2.05456C42.915 1.57789 43.1873 1.20337 43.5616 0.999084C43.8339 0.862894 44.3784 0.726703 45.0591 1.30551C46.2842 2.29289 47.067 3.62075 47.8157 4.91456L48.0199 5.25503C48.0199 5.25503 48.0199 5.28908 48.0539 5.28908C48.2922 5.28908 48.5304 5.25503 48.7686 5.11884C49.1089 4.9486 49.3812 4.09741 49.2791 3.62075L50.9127 3.17813C51.219 4.33575 50.7085 6.03813 49.5514 6.65098C49.3472 6.75313 49.143 6.82122 48.9388 6.88932C50.164 9.37479 50.7765 11.7581 50.7765 14.1415C50.7765 16.4567 49.7215 18.091 47.9178 18.6357C47.6796 18.7038 47.4754 18.7379 47.2372 18.7719C47.2031 19.2145 47.1691 19.6912 47.067 20.1338C46.6246 21.7681 45.6036 23.0619 44.2423 23.6067ZM38.1505 1.71408C38.1164 1.71408 38.0824 1.71408 38.0143 1.74813C37.8442 1.78218 37.64 1.95242 37.5719 2.12265C37.4017 2.49718 37.4358 3.00789 37.4698 3.48456C37.8782 7.12765 39.5798 10.7367 42.3365 14.0053C43.2213 15.0267 44.2763 16.1503 45.3654 16.695C44.8889 12.4391 43.1532 8.04693 40.3285 3.96122C39.784 3.14408 39.1374 2.32694 38.3547 1.78218C38.3547 1.74813 38.2526 1.71408 38.1505 1.71408Z" fill="#1CDE0B"/>
<path d="M3.60745 17.7845C5.78553 17.7845 7.4191 17.6483 8.26991 15.5374H8.5762V18.84H0V18.2271C0.27226 18.0569 0.612586 17.8186 0.612586 17.0355V7.4681C0.612586 6.685 0.27226 6.44667 0 6.27643V5.66357H8.61024V8.96619H8.30394C7.45313 6.85524 5.78553 6.71905 3.64148 6.71905H3.50535V10.975H7.317V14.0052H7.1128C6.29602 12.8817 5.6494 12.0986 3.57342 12.0305H3.50535V17.8526H3.60745V17.7845Z" fill="#004501"/>
<path d="M9.56311 13.4263C9.56311 10.8047 11.2647 8.28516 14.9743 8.28516C16.3356 8.28516 17.765 8.79587 19.0242 9.51087L17.2204 12.473L17.0162 12.439C16.3356 11.009 15.2125 9.37468 14.0554 9.37468C13.0004 9.37468 12.5239 10.4642 12.5239 11.758C12.5239 15.0606 15.0083 18.4654 18.888 17.5121L19.0242 17.8185C18.1393 18.6356 16.778 19.0442 15.3146 19.0442C11.9794 19.0782 9.56311 16.6609 9.56311 13.4263Z" fill="#004501"/>
<path d="M26.9878 8.28534C28.3831 8.28534 29.5742 8.96629 29.5402 11.2475V16.7632C29.5402 17.5463 29.9486 18.3634 30.8675 17.9889L31.0036 18.2953C30.4931 18.6358 29.8125 19.0444 28.8595 19.0444C27.7365 19.0444 26.6134 18.4315 26.6134 16.5929V11.7241C26.6134 10.5665 26.2731 9.91962 25.3202 9.91962C24.6735 9.91962 23.8908 10.3622 23.2782 10.7708V17.0356C23.2782 17.8187 23.6185 18.057 23.8908 18.2272V18.8401H19.8069V18.2272C20.0791 18.091 20.4195 17.8187 20.4195 17.0356V6.24248C20.4195 5.45939 20.0791 5.22105 19.8069 5.05082V4.77844L23.04 3.92725L23.3122 4.16558V9.5451C24.3672 8.96629 25.7626 8.28534 26.9878 8.28534Z" fill="#004501"/>
<path d="M30.9357 13.6987C30.9357 10.9749 32.8075 8.28516 36.551 8.28516C39.7501 8.28516 42.1664 10.4302 42.1664 13.6987C42.1324 16.3885 40.2946 19.0442 36.551 19.0442C33.386 19.0442 30.9357 16.9332 30.9357 13.6987ZM33.7944 11.8942C33.7944 14.4137 35.496 17.9206 37.538 17.8866C38.8312 17.8866 39.3417 16.7971 39.3417 15.4351C39.3417 12.9156 37.6401 9.37468 35.5981 9.37468C34.1688 9.37468 33.7944 10.7366 33.7944 11.8942Z" fill="#004501"/>
<path d="M3.64158 28.9183V33.9914C3.64158 34.7745 3.98191 35.0128 4.22014 35.1831V35.7959H0.13623V35.1831C0.408491 35.0469 0.748816 34.7745 0.748816 33.9914V24.39C0.748816 23.6069 0.408491 23.3685 0.13623 23.1983V22.5854H9.56325V25.8881H9.25696C8.40614 23.7771 6.56838 23.6409 4.3903 23.6409H3.64158V27.8969H8.30404V30.9271H8.09985C7.28307 29.8035 6.02386 28.9523 3.94788 28.9523H3.64158V28.9183Z" fill="#004501"/>
<path d="M11.1287 27.5563C11.1287 26.7732 10.7884 26.5348 10.5161 26.3646V26.0582L13.7832 25.241L14.0215 25.4453V33.9913C14.0215 34.7743 14.3618 35.0127 14.6341 35.1829V35.7958H10.5501V35.1829C10.8224 35.0467 11.1627 34.7743 11.1627 33.9913V27.5563H11.1287ZM12.524 21.2915C13.4089 21.2915 13.9874 21.8703 13.9874 22.7556C13.9874 23.6408 13.4429 24.1855 12.524 24.1855C11.6392 24.1855 11.0606 23.6067 11.0606 22.7215C11.0606 21.8363 11.6732 21.2915 12.524 21.2915Z" fill="#004501"/>
<path d="M16.4379 27.5564C16.4379 26.7734 16.0976 26.535 15.8253 26.3648V26.0584L19.0924 25.2412L19.3306 25.4455V26.4669C20.3516 25.9222 21.781 25.2412 22.9721 25.2412C24.3675 25.2412 25.5586 25.9222 25.5246 28.2034V33.7191C25.5246 34.5022 25.933 35.3193 26.8518 34.9448L26.988 35.2172C26.4775 35.5917 25.7968 35.9662 24.8439 35.9662C23.7208 35.9322 22.5978 35.3533 22.5978 33.5148V28.68C22.5978 27.5224 22.2574 26.8755 21.3045 26.8755C20.6579 26.8755 19.8752 27.3181 19.2626 27.7267V34.0255C19.2626 34.8086 19.6029 35.0469 19.8752 35.2172V35.83H15.7913V35.2172C16.0635 35.081 16.4038 34.8086 16.4038 34.0255V27.5564H16.4379Z" fill="#004501"/>
<path d="M35.0195 34.7743C33.8624 35.5234 32.6713 35.7958 31.6163 35.7958C25.7287 35.7958 24.8778 25.0367 32.2629 25.0367C33.1137 25.0367 34.0326 25.2751 35.0195 25.7858V23.6408C35.0195 22.8577 34.6792 22.6194 34.441 22.4491V22.1427L37.64 21.2915L37.9123 21.5298V33.9913C37.9123 34.7743 38.2526 35.0127 38.4909 35.1829V35.7958H34.9855V34.7743H35.0195ZM35.0195 29.3608C33.6582 25.0027 29.7785 25.0708 29.7785 28.7139C29.7785 32.1527 33.0116 35.5574 35.0195 33.5486V29.3608Z" fill="#004501"/>
<path d="M42.1664 27.1477C42.1664 29.2246 47.7137 30.1099 47.7137 33.2423C47.7137 35.4213 45.5356 36.0001 43.868 36.0001C42.6769 36.0001 40.771 35.7618 39.682 35.4554V31.608H39.9883C40.6349 32.8677 42.7109 34.9446 44.1743 34.9446C44.7869 34.9446 45.1612 34.6723 45.1612 34.0594C45.1612 32.2549 39.5799 31.2675 39.5799 27.9989C39.5459 26.0923 41.4857 25.207 43.4937 25.207C44.9571 25.207 45.91 25.5475 47.2372 26.4327V29.0204L46.9309 29.0544C45.91 27.7606 44.3445 26.2285 43.1193 26.2285C42.779 26.2625 42.1664 26.4668 42.1664 27.1477Z" fill="#004501"/>
</svg>
