<svg width="119" height="36" viewBox="0 0 119 36" fill="none" xmlns="http://www.w3.org/2000/svg">
<path d="M110.491 28L109.764 26.102C110.935 25.6577 111.581 24.4058 111.823 23.3558C111.904 22.952 111.985 22.4674 111.985 21.9828C109.602 21.2559 107.664 18.9944 106.695 17.8636C103.181 13.7041 101 9.01952 100.475 4.33497C100.395 3.56767 100.354 2.55807 100.758 1.62924C101.122 0.861946 101.808 0.29657 102.575 0.0946501C103.302 -0.10727 104.029 0.0138819 104.635 0.458106C105.846 1.26579 106.695 2.43692 107.462 3.52729C111.137 8.8176 113.358 14.5925 113.883 20.1655C114.004 20.1655 114.085 20.1251 114.206 20.0847C115.821 19.6405 116.144 17.9848 116.144 16.6925C116.144 13.906 115.337 11.0791 113.681 8.00992C113.479 7.92915 113.237 7.84838 113.035 7.76761C111.298 6.95993 109.683 5.18303 109.037 3.28499C108.956 3.04268 108.875 2.75999 108.875 2.39654C108.916 1.83116 109.239 1.38694 109.683 1.14463C110.006 0.983098 110.652 0.821562 111.46 1.50809C112.914 2.71961 113.843 4.2542 114.731 5.7888L114.973 6.19264C114.973 6.19264 114.973 6.23302 115.014 6.23302C115.296 6.23302 115.579 6.19263 115.862 6.0311C116.266 5.82918 116.589 4.81958 116.467 4.2542L118.406 3.72921C118.769 5.10227 118.164 7.12147 116.791 7.84838C116.548 7.96953 116.306 8.0503 116.064 8.13107C117.517 11.0791 118.244 13.906 118.244 16.7329C118.244 19.479 116.992 21.4174 114.852 22.0636C114.569 22.1443 114.327 22.1847 114.044 22.2251C114.004 22.7501 113.964 23.3155 113.843 23.8404C113.318 25.8193 112.106 27.3942 110.491 28ZM103.262 2.03308C103.222 2.03308 103.181 2.03308 103.1 2.07347C102.898 2.11385 102.656 2.31577 102.575 2.51769C102.373 2.96191 102.414 3.56767 102.454 4.13305C102.939 8.45414 104.958 12.7348 108.229 16.6117C109.279 17.8232 110.531 19.1559 111.823 19.802C111.258 14.754 109.198 9.54451 105.846 4.69843C105.2 3.72921 104.433 2.75999 103.504 2.11385C103.504 2.11385 103.383 2.03308 103.262 2.03308Z" fill="#1CDE0B"/>
<path d="M4.32109 22.6291C6.90566 22.6291 8.8441 22.4676 9.8537 19.9638H10.2171V23.8811H0V23.1541C0.323072 22.9926 0.726907 22.6695 0.726907 21.7407V10.3928C0.726907 9.46396 0.323072 9.18127 0 8.97935V8.25244H10.2575V12.1697H9.89408C8.88448 9.66588 6.90566 9.50435 4.36147 9.50435H4.19993V14.5523H8.72294V18.1465H8.48064C7.51143 16.8139 6.74413 15.885 4.2807 15.8043H4.19993V22.7099H4.32109V22.6291Z" fill="#004501"/>
<path d="M11.3882 17.4598C11.3882 14.3502 13.4074 11.3618 17.8092 11.3618C19.4246 11.3618 21.1207 11.9676 22.6149 12.8156L20.4746 16.329L20.2323 16.2887C19.4246 14.5925 18.0919 12.6541 16.7189 12.6541C15.467 12.6541 14.9016 13.9464 14.9016 15.481C14.9016 19.3982 17.8496 23.4366 22.4534 22.3059L22.6149 22.6693C21.565 23.6386 19.9496 24.1232 18.2131 24.1232C14.2555 24.1635 11.3882 21.2963 11.3882 17.4598Z" fill="#004501"/>
<path d="M32.065 11.3619C33.7207 11.3619 35.1342 12.1696 35.0938 14.8753V21.4175C35.0938 22.3463 35.5784 23.3155 36.6687 22.8713L36.8303 23.2348C36.2245 23.6386 35.4168 24.1232 34.2861 24.1232C32.9534 24.1232 31.6207 23.3963 31.6207 21.2156V15.4407C31.6207 14.0676 31.2169 13.3003 30.0862 13.3003C29.3189 13.3003 28.39 13.8253 27.6631 14.3099V21.781C27.6631 22.7098 28.067 22.9925 28.39 23.1944V23.8809H23.5439V23.154C23.867 22.9925 24.2709 22.6694 24.2709 21.7406V8.93884C24.2709 8.01001 23.867 7.72732 23.5439 7.5254V7.16194L27.3804 6.15234L27.7035 6.43503V12.8157C28.9554 12.1696 30.6111 11.3619 32.065 11.3619Z" fill="#004501"/>
<path d="M36.7495 17.7829C36.7495 14.5522 38.9706 11.3618 43.4129 11.3618C47.209 11.3618 50.0762 13.906 50.0762 17.7829C50.0359 20.9732 47.8551 24.1232 43.4129 24.1232C39.6572 24.1232 36.7495 21.6194 36.7495 17.7829ZM40.1014 15.6425C40.1014 18.6309 42.1206 22.7905 44.5436 22.7501C46.0782 22.7501 46.684 21.4578 46.684 19.8425C46.684 16.854 44.6648 12.6541 42.2417 12.6541C40.586 12.6541 40.1014 14.2695 40.1014 15.6425Z" fill="#004501"/>
<path d="M55.9318 15.9657V21.9829C55.9318 22.9117 56.3356 23.1944 56.6183 23.3963V24.1232H51.7722V23.3963C52.0953 23.2348 52.4991 22.9117 52.4991 21.9829V10.635C52.4991 9.70615 52.0953 9.42346 51.7722 9.22154V8.49463H62.9586V12.4119H62.5951C61.5855 9.90807 59.4048 9.74653 56.8202 9.74653H55.9318V14.7945H61.4644V18.3887H61.2221C60.2529 17.056 58.7587 16.0464 56.2952 16.0464H55.9318V15.9657Z" fill="#004501"/>
<path d="M64.776 14.3502C64.776 13.4214 64.3721 13.1387 64.0491 12.9368V12.5733L67.9259 11.6041L68.2086 11.8464V21.9828C68.2086 22.9116 68.6125 23.1943 68.9355 23.3963V24.1232H64.0894V23.3963C64.4125 23.2347 64.8164 22.9116 64.8164 21.9828V14.3502H64.776ZM66.4721 6.95996C67.5221 6.95996 68.2086 7.64649 68.2086 8.69647C68.2086 9.74646 67.5221 10.433 66.4721 10.433C65.4221 10.433 64.7356 9.74646 64.7356 8.69647C64.7356 7.64649 65.4625 6.95996 66.4721 6.95996Z" fill="#004501"/>
<path d="M71.1163 14.3501C71.1163 13.4213 70.7125 13.1386 70.3894 12.9367V12.5732L74.2663 11.604L74.5489 11.8463V13.0578C75.7605 12.4117 77.4566 11.604 78.87 11.604C80.5258 11.604 81.9392 12.4117 81.8988 15.1174V21.6596C81.8988 22.5885 82.3834 23.5577 83.4738 23.1134L83.6353 23.4365C83.0296 23.8807 82.2219 24.325 81.0911 24.325C79.7585 24.2846 78.4258 23.5981 78.4258 21.4173V15.6828C78.4258 14.3097 78.022 13.5424 76.8912 13.5424C76.1239 13.5424 75.1951 14.0674 74.4682 14.552V22.0231C74.4682 22.9519 74.872 23.2346 75.1951 23.4365V24.1634H70.349V23.4365C70.6721 23.275 71.0759 22.9519 71.0759 22.0231V14.3501H71.1163Z" fill="#004501"/>
<path d="M93.166 22.952C91.7929 23.8405 90.3795 24.1635 89.1276 24.1635C82.1412 24.1635 81.1316 11.4022 89.8949 11.4022C90.9045 11.4022 91.9949 11.6849 93.166 12.2907V9.74646C93.166 8.81763 92.7622 8.53494 92.4795 8.33302V7.96956L96.2756 6.95996L96.5986 7.24265V22.0232C96.5986 22.952 97.0025 23.2347 97.2852 23.4366V24.1635H93.1256V22.952H93.166ZM93.166 16.531C91.5506 11.3618 86.9469 11.4426 86.9469 15.7637C86.9469 19.8425 90.7833 23.8809 93.166 21.4982V16.531Z" fill="#004501"/>
<path d="M101.646 13.8655C101.646 16.3289 108.229 17.3789 108.229 21.0942C108.229 23.6788 105.644 24.3654 103.666 24.3654C102.252 24.3654 99.9907 24.0827 98.6985 23.7192V19.1962H99.0619C99.8292 20.6904 102.293 23.1538 104.029 23.1538C104.756 23.1538 105.2 22.8308 105.2 22.1038C105.2 19.9635 98.5773 18.7924 98.5773 14.9155C98.5369 12.654 100.839 11.604 103.221 11.604C104.958 11.604 106.089 12.0078 107.664 13.0578V16.127L107.3 16.1674C106.089 14.6328 104.231 12.8155 102.777 12.8155C102.373 12.8155 101.646 13.0982 101.646 13.8655Z" fill="#004501"/>
</svg>
