<svg xmlns="http://www.w3.org/2000/svg" viewBox="0 0 259.55 69.29"><defs><style>.cls-1{fill:#00ed04;}.cls-2{fill:#004501;}</style></defs><g id="Layer_2" data-name="Layer 2"><g id="Layer_1-2" data-name="Layer 1"><path class="cls-1" d="M239.84,69.29,238,64.64c2.87-1.13,4.5-4.24,5.07-6.77a17.84,17.84,0,0,0,.4-3.43c-5.92-1.79-10.66-7.37-13-10.19-8.74-10.31-14.07-21.9-15.43-33.53a12.16,12.16,0,0,1,.72-6.67A7.11,7.11,0,0,1,220.24.23a6.07,6.07,0,0,1,5.14.86,29,29,0,0,1,7.05,7.63c9.12,13.13,14.6,27.36,15.86,41.18a5.62,5.62,0,0,0,.79-.18c4-1.14,4.8-5.18,4.8-8.37,0-6.91-2-14-6.13-21.45a13.57,13.57,0,0,1-1.63-.62A20.54,20.54,0,0,1,236.2,8.16a5.26,5.26,0,0,1-.37-2.2,3.65,3.65,0,0,1,2-3.09c.79-.37,2.41-.75,4.37.87,3.57,3,5.85,6.83,8.07,10.57l.57,1,.06.09a4.42,4.42,0,0,0,2.07-.49c1-.52,1.84-3,1.46-4.43l4.82-1.32c.93,3.36-.58,8.44-4,10.19a9.16,9.16,0,0,1-1.82.71,47.28,47.28,0,0,1,5.41,21.31c0,6.83-3.07,11.63-8.41,13.18a13.11,13.11,0,0,1-2,.4,23.38,23.38,0,0,1-.51,4C246.85,63.87,243.82,67.73,239.84,69.29ZM221.91,5a1.72,1.72,0,0,0-.36,0,2.15,2.15,0,0,0-1.3,1.12,7.75,7.75,0,0,0-.29,4c1.25,10.65,6.18,21.32,14.28,30.87,2.58,3.05,5.67,6.3,8.92,7.92-1.42-12.52-6.53-25.4-14.84-37.36a24.53,24.53,0,0,0-5.78-6.37A1.1,1.1,0,0,0,221.91,5Z"/><path class="cls-2" d="M10.63,56c6.38,0,11.24-.36,13.73-6.62h.91V59H0V57.22c.79-.43,1.76-1.16,1.76-3.47V25.63c0-2.31-1-3-1.76-3.46V20.34H25.27V30h-.91c-2.49-6.19-7.35-6.62-13.73-6.62h-.36V35.83H21.5V44.7h-.6c-2.43-3.28-4.26-5.65-10.39-5.83h-.24V56Z"/><path class="cls-2" d="M28.06,43.12c0-7.65,5.05-15.06,15.86-15.06a24.76,24.76,0,0,1,11.9,3.64l-5.34,8.75-.61-.12c-2-4.19-5.34-9-8.75-9-3.09,0-4.49,3.16-4.49,7,0,9.72,7.29,19.69,18.71,17l.36.85c-2.55,2.37-6.62,3.65-10.87,3.65C35.23,59.77,28.06,52.66,28.06,43.12Z"/><path class="cls-2" d="M57.4,44c0-7.95,5.47-15.91,16.53-15.91,9.35,0,16.46,6.32,16.46,15.85-.06,7.9-5.53,15.74-16.46,15.74C64.57,59.65,57.4,53.45,57.4,44Zm8.32-5.28c0,7.35,5,17.68,11,17.62,3.77,0,5.34-3.16,5.34-7.23,0-7.41-5-17.8-11-17.8C66.88,31.28,65.72,35.23,65.72,38.69Z"/><path class="cls-2" d="M104.71,39.48V54.36c0,2.31,1,3,1.7,3.46v1.83h-12V57.82c.79-.42,1.76-1.15,1.76-3.46V26.24c0-2.31-1-3-1.76-3.47V21h27.7v9.66h-.91c-2.49-6.2-7.9-6.62-14.34-6.62h-2.18V36.44h13.66v8.87h-.6c-2.43-3.28-6.08-5.77-12.21-5.83Z"/><path class="cls-2" d="M126.63,35.47c0-2.31-1-3-1.76-3.46V31.1l9.6-2.43.67.6V54.36c0,2.31,1,3,1.76,3.46v1.83h-12V57.82c.79-.42,1.76-1.15,1.76-3.46Zm4.2-18.35a4,4,0,0,1,4.31,4.26,4.29,4.29,0,0,1-8.57,0A4,4,0,0,1,130.83,17.12Z"/><path class="cls-2" d="M142.31,35.47c0-2.31-1-3-1.77-3.46V31.1l9.6-2.43.67.6v3c3-1.64,7.17-3.64,10.69-3.64,4.07,0,7.6,2,7.53,8.68V53.57c0,2.31,1.16,4.68,3.95,3.65l.43.79a10.47,10.47,0,0,1-6.26,2.24c-3.34-.06-6.62-1.76-6.62-7.22V38.75c0-3.4-1-5.35-3.77-5.35-1.88,0-4.19,1.28-5.95,2.5V54.36c0,2.31,1,3,1.76,3.46v1.83h-12V57.82c.79-.42,1.77-1.15,1.77-3.46Z"/><path class="cls-2" d="M196.92,56.73a17.82,17.82,0,0,1-10,3c-17.25,0-19.8-31.65,2-31.65A17.63,17.63,0,0,1,197,30.25V23.93c0-2.31-1-3-1.7-3.46v-.92l9.41-2.49.79.67V54.36c0,2.31,1,3,1.7,3.46v1.83H196.92Zm0-15.91c-4-12.82-15.43-12.64-15.43-1.89,0,10.15,9.53,20.11,15.43,14.22Z"/><path class="cls-2" d="M217.87,34.25c0,6.08,16.34,8.69,16.34,17.92,0,6.44-6.44,8.08-11.3,8.08a50.7,50.7,0,0,1-12.27-1.64V47.44h.91c1.89,3.7,8,9.78,12.27,9.78,1.83,0,2.92-.79,2.92-2.56,0-5.28-16.4-8.2-16.4-17.79-.06-5.65,5.59-8.2,11.54-8.2,4.25,0,7.11,1,11,3.64V39.9L232,40c-3-3.82-7.6-8.26-11.24-8.26A2.69,2.69,0,0,0,217.87,34.25Z"/></g></g></svg>